<svg viewBox="0 0 512 512" xmlns="http://www.w3.org/2000/svg">

  <!-- Clipboard board - dark warm tone -->
  <rect x="96" y="72" width="320" height="400" rx="28" fill="#3E3224"/>
  <!-- Board inner face -->
  <rect x="104" y="80" width="304" height="384" rx="24" fill="#4A3C2C"/>

  <!-- Metal clip - muted steel -->
  <rect x="186" y="48" width="140" height="56" rx="8" fill="#546E7A"/>
  <rect x="186" y="48" width="140" height="28" rx="8" fill="#607D8B"/>
  <!-- Clip hole -->
  <rect x="218" y="34" width="76" height="36" rx="18" fill="#4A3C2C"/>
  <rect x="228" y="42" width="56" height="20" rx="10" fill="#5C4A36"/>

  <!-- Paper sheet - dark surface -->
  <rect x="124" y="100" width="264" height="352" rx="12" fill="#1A1A1A"/>
  <!-- Paper fold accent -->
  <path d="M364 100L388 124L364 124Z" fill="#242424"/>

  <!-- Title pill badge -->
  <rect x="152" y="120" width="208" height="32" rx="16" fill="#7C8FE4"/>
  <text x="256" y="141" text-anchor="middle" dominant-baseline="central" font-family="system-ui, -apple-system, sans-serif" font-size="13" font-weight="700" fill="#FFFFFF" letter-spacing="1.2">SPEC DRIVEN GUIDE</text>

  <!-- Checklist rows -->
  <!-- Row 1 - SPEC -->
  <circle cx="168" cy="192" r="14" fill="#66BB6A"/>
  <path d="M161 192L166 197L176 187" fill="none" stroke="#1A1A1A" stroke-width="2.8" stroke-linecap="round" stroke-linejoin="round"/>
  <text x="196" y="197" font-family="system-ui, -apple-system, sans-serif" font-size="18" font-weight="700" fill="#E0DDD6" letter-spacing="1">SPEC</text>
  <rect x="196" y="205" width="80" height="4" rx="2" fill="#333"/>

  <!-- Row 2 - PLAN -->
  <circle cx="168" cy="248" r="14" fill="#66BB6A"/>
  <path d="M161 248L166 253L176 243" fill="none" stroke="#1A1A1A" stroke-width="2.8" stroke-linecap="round" stroke-linejoin="round"/>
  <text x="196" y="253" font-family="system-ui, -apple-system, sans-serif" font-size="18" font-weight="700" fill="#E0DDD6" letter-spacing="1">PLAN</text>
  <rect x="196" y="261" width="100" height="4" rx="2" fill="#333"/>

  <!-- Row 3 - CODE -->
  <circle cx="168" cy="304" r="14" fill="#66BB6A"/>
  <path d="M161 304L166 309L176 299" fill="none" stroke="#1A1A1A" stroke-width="2.8" stroke-linecap="round" stroke-linejoin="round"/>
  <text x="196" y="309" font-family="system-ui, -apple-system, sans-serif" font-size="18" font-weight="700" fill="#E0DDD6" letter-spacing="1">CODE</text>
  <rect x="196" y="317" width="120" height="4" rx="2" fill="#333"/>

  <!-- Row 4 - TEST -->
  <circle cx="168" cy="360" r="14" fill="#66BB6A"/>
  <path d="M161 360L166 365L176 355" fill="none" stroke="#1A1A1A" stroke-width="2.8" stroke-linecap="round" stroke-linejoin="round"/>
  <text x="196" y="365" font-family="system-ui, -apple-system, sans-serif" font-size="18" font-weight="700" fill="#E0DDD6" letter-spacing="1">TEST</text>
  <rect x="196" y="373" width="90" height="4" rx="2" fill="#333"/>

  <!-- Row 5 - END -->
  <circle cx="168" cy="416" r="14" fill="#66BB6A"/>
  <path d="M161 416L166 421L176 411" fill="none" stroke="#1A1A1A" stroke-width="2.8" stroke-linecap="round" stroke-linejoin="round"/>
  <text x="196" y="421" font-family="system-ui, -apple-system, sans-serif" font-size="18" font-weight="700" fill="#E0DDD6" letter-spacing="1">END</text>
  <rect x="196" y="429" width="68" height="4" rx="2" fill="#333"/>

</svg>
